<svg xmlns="http://www.w3.org/2000/svg" viewBox="0 0 725 236" width="725" height="236" font-family="Helvetica, Arial, sans-serif">
<rect width="725" height="236" fill="#fff"/>
<text x="24" y="32" font-size="20" font-weight="bold">L6 = A + BC</text>
<text x="24" y="54" font-size="12" fill="#555">Lit when N &gt;= 6.  Gate IDs match the complete circuit.</text>
<path d="M 300,124 L 353,124 L 353,164 L 406,164" fill="none" stroke="#1a4fa0" stroke-width="1.8" stroke-linejoin="round"/>
<path d="M 455,174 L 525,174" fill="none" stroke="#1a4fa0" stroke-width="1.8" stroke-linejoin="round"/>
<path d="M 70,164 L 70,184" fill="none" stroke="#1a4fa0" stroke-width="1.8" stroke-linejoin="round"/>
<path d="M 110,94 L 110,114" fill="none" stroke="#1a4fa0" stroke-width="1.8" stroke-linejoin="round"/>
<path d="M 150,114 L 150,134" fill="none" stroke="#1a4fa0" stroke-width="1.8" stroke-linejoin="round"/>
<path d="M 110,114 L 250,114" fill="none" stroke="#1a4fa0" stroke-width="1.8" stroke-linejoin="round"/>
<path d="M 150,134 L 250,134" fill="none" stroke="#1a4fa0" stroke-width="1.8" stroke-linejoin="round"/>
<path d="M 70,184 L 406,184" fill="none" stroke="#1a4fa0" stroke-width="1.8" stroke-linejoin="round"/>
<path d="M 400,154 C 430,154 446,166 455,174 C 446,182 430,194 400,194 Q 415,174 400,154 Z" fill="#fff" stroke="#111" stroke-width="2" stroke-linejoin="round"/><text x="400" y="149" font-size="11" fill="#666" font-family="Helvetica, Arial, sans-serif">G11 (OR)</text>
<path d="M 250,104 H 280 A 20 20 0 0 1 280,144 H 250 Z" fill="#fff" stroke="#111" stroke-width="2" stroke-linejoin="round"/><text x="250" y="99" font-size="11" fill="#666" font-family="Helvetica, Arial, sans-serif">G7 (AND)</text>
<circle cx="70" cy="184" r="3.4" fill="#1a4fa0"/>
<circle cx="110" cy="114" r="3.4" fill="#1a4fa0"/>
<circle cx="150" cy="134" r="3.4" fill="#1a4fa0"/>
<circle cx="525" cy="174" r="5" fill="#fff" stroke="#b00020" stroke-width="2"/><text x="539" y="179" font-size="14" font-weight="bold" fill="#b00020">L6 = A + BC</text>
<text x="70" y="156" font-size="15" font-weight="bold" text-anchor="middle">A</text>
<text x="110" y="86" font-size="15" font-weight="bold" text-anchor="middle">B</text>
<text x="150" y="106" font-size="15" font-weight="bold" text-anchor="middle">C</text>
</svg>